<?xml version="1.0" encoding="UTF-8" standalone="no"?>
<svg
   version="1.1"
   viewBox="0.00 0.00 512.00 512.00"
   id="svg15"
   sodipodi:docname="freepik__icon_that_indicates_a_secures_connection,_lik.svg"
   inkscape:export-filename="icon.png"
   inkscape:export-xdpi="96"
   inkscape:export-ydpi="96"
   inkscape:version="1.4.2 (f4327f4, 2025-05-13)"
   xmlns:inkscape="http://www.inkscape.org/namespaces/inkscape"
   xmlns:sodipodi="http://sodipodi.sourceforge.net/DTD/sodipodi-0.dtd"
   xmlns="http://www.w3.org/2000/svg"
   xmlns:svg="http://www.w3.org/2000/svg">
  <defs
     id="defs15" />
  <sodipodi:namedview
     id="namedview15"
     pagecolor="#ffffff"
     bordercolor="#000000"
     borderopacity="0.25"
     inkscape:showpageshadow="2"
     inkscape:pageopacity="0.0"
     inkscape:pagecheckerboard="0"
     inkscape:deskcolor="#d1d1d1"
     inkscape:zoom="2.1972656"
     inkscape:cx="256"
     inkscape:cy="256"
     inkscape:window-width="2560"
     inkscape:window-height="1369"
     inkscape:window-x="1912"
     inkscape:window-y="-3"
     inkscape:window-maximized="1"
     inkscape:current-layer="g13" />
  <g
     fill="#000000"
     id="g13">
    <rect
       style="fill:#ffffff;stroke-width:7.55906"
       id="rect21"
       width="149.27644"
       height="152.46222"
       x="14.563556"
       y="345.88443" />
    <rect
       style="fill:#ffffff;stroke-width:7.55906"
       id="rect22"
       width="147.45599"
       height="149.73155"
       x="346.79468"
       y="345.88443" />
    <path
       d="M 149.8,512 H 32.61 C 18.33,510.64 8.3066667,503.64667 2.54,491.02 1.38,488.48 0.72,485.62 0,482.83 V 362.12 c 0.82,-3.25 1.36,-7.06 2.51,-9.85 5.18,-12.61 17.56,-21.11 31.24,-21.13 18.88,-0.0133 32.37,0 40.47,0.04 0.23196,0 0.42,-0.18804 0.42,-0.42 0.02667,-26.94 0,-47.52333 -0.08,-61.75 -0.04,-7.14 0.66,-9.98 6.23,-12.95 0.893333,-0.47333 2.94,-0.71 6.14,-0.71 20.67333,0 59.34667,0.01 68.02,0.03 0.2967,-8.3e-4 0.57333,0.15454 0.73,0.41 4.56667,7.36 9.7,14.37 15.4,21.03 0.30441,0.3701 0.0527,0.92753 -0.42,0.93 h -74.1 c -0.265097,0 -0.48,0.21043 -0.48,0.47 v 52.1 c 0,0.48601 0.393989,0.88 0.88,0.88 19.22667,-0.0867 36.48333,-0.09 51.77,-0.01 7.70667,0.0333 14.85333,2.75667 21.44,8.17 4.73333,3.88667 8.09,9.02667 10.07,15.42 0.95333,3.08 1.42333,9.27333 1.41,18.58 -0.04,22.96 -0.0433,58.31667 -0.01,106.07 0,7.16667 -2.63667,13.84667 -7.91,20.04 -5.04667,5.92667 -11.39667,9.68 -19.05,11.26 -1.68,0.34667 -3.30667,0.77 -4.88,1.27 z M 160,360.03 c -1.84,-5.42 -5.84333,-8.12667 -12.01,-8.12 -30.18,0.04 -67.173333,0.0233 -110.98,-0.05 -4.533333,-0.007 -7.793333,0.50667 -9.78,1.54 -3.786667,1.96667 -5.693333,5.5 -5.72,10.6 -0.07333,15.06667 -0.106667,52.12667 -0.1,111.18 0,4.00667 0.436667,6.83 1.31,8.47 3.54,6.62 8.71,7.54 16.75,7.53 58.26,-0.0867 93.43667,-0.10333 105.53,-0.05 3.36,0.02 5.74667,-0.24333 7.16,-0.79 3.24,-1.26 5.56667,-3.23333 6.98,-5.92 0.9,-1.71333 1.35,-4.73667 1.35,-9.07 0.0133,-45.13333 -0.03,-82.84 -0.13,-113.12 -2e-5,-0.74834 -0.1216,-1.49137 -0.36,-2.2 z"
       id="path11"
       sodipodi:nodetypes="ccsccccccccsccccsssccccccccccccccccccccccc" />
    <path
       d="m 512,360.17 v 122.67 c -2.58,12.93333 -9.59,21.77667 -21.03,26.53 -3.63,1.5 -7.6,1.93 -11.63,2.63 H 361.76 c -14.84667,-2.16667 -24.77,-10.25333 -29.77,-24.26 -0.84667,-2.37333 -1.27,-5.28667 -1.27,-8.74 0.007,-64.1 -0.0167,-101.76667 -0.07,-113 -0.05,-8.71 2.15,-17.66 7.92,-23.75 4.66,-4.92 10.78,-8.96 17.61,-10.43 2.1,-0.46 5.16,-0.68667 9.18,-0.68 14.56,0 31.18,0.0167 49.86,0.05 0.14912,0 0.27,-0.12088 0.27,-0.27 v -52.5 c 0,-0.48049 -0.38951,-0.87 -0.87,-0.87 h -72.73 c -0.61095,0.004 -0.95664,-0.69893 -0.58,-1.18 l 15.33,-19.89 c 0.46665,-0.60634 1.18218,-0.9641 1.94,-0.97 3.98,-0.0267 41.83667,-0.0633 65.57,-0.11 3.56,-0.007 6.08,0.43 7.56,1.31 3.52,2.09333 5.21667,5.59667 5.09,10.51 -0.0333,1.44667 -0.0233,22.57667 0.03,63.39 0,0.29823 0.24177,0.54 0.54,0.54 17.82667,0.0267 30.02667,0.007 36.6,-0.06 5.90667,-0.06 10.22,0.29667 12.94,1.07 11.01,3.13 21.17,12.72 23.75,23.2 0.58667,2.40667 1.03333,4.01 1.34,4.81 z m -20.8378,4.9576 c -0.0134,-7.69885 -6.26545,-13.92913 -13.9643,-13.9157 l -112.5198,0.1964 c -7.69882,0.0135 -13.92903,6.26548 -13.9156,13.9643 l 0.1953,111.8998 c 0.0134,7.69885 6.26545,13.92913 13.9643,13.9157 l 112.5198,-0.1964 c 7.69882,-0.0135 13.92903,-6.26548 13.9156,-13.9643 z"
       id="path12"
       sodipodi:nodetypes="ccccccccccccssscccccccccsccccscscscsc" />
    <rect
       x="43.12"
       y="374.23"
       width="95.44"
       height="95.44"
       rx="0.44"
       id="rect12"
       style="fill:#ffcc00" />
    <rect
       x="373.67"
       y="374.45"
       width="95.18"
       height="95.18"
       rx="0.67"
       id="rect13"
       style="fill:#ffcc00" />
  </g>
  <g
     fill="#000000"
     id="g20"
     style="fill:#ff0000">
    <rect
       style="fill:#ffffff;stroke-width:7.55906"
       id="rect20"
       width="143.81511"
       height="194.78755"
       x="184.32001"
       y="70.542221" />
    <path
       d="   M 106.22 46.42   C 106.20 43.91 108.12 41.83 110.75 41.80   Q 116.43 41.73 146.23 41.58   Q 151.64 41.55 167.00 39.27   Q 191.32 35.67 214.85 25.26   C 228.21 19.35 240.48 11.45 251.18 2.21   C 255.35 -1.39 259.01 0.68 263.02 3.93   Q 289.39 25.32 323.07 34.67   Q 338.86 39.06 355.01 41.12   Q 372.81 43.40 399.33 41.48   Q 402.39 41.25 403.63 41.99   Q 405.42 43.06 405.42 45.77   Q 405.40 71.11 405.61 121.50   Q 405.74 151.02 398.65 179.68   Q 395.48 192.49 388.99 208.84   C 380.70 229.71 369.33 248.40 355.60 265.86   Q 342.57 282.41 325.63 296.87   Q 313.85 306.91 302.55 314.53   Q 280.23 329.56 257.10 340.60   A 2.43 2.42 45.1 0 1 254.98 340.59   Q 241.83 334.21 226.57 325.22   C 219.51 321.06 210.29 314.84 205.79 311.60   Q 175.26 289.58 154.65 263.34   C 128.38 229.90 112.71 190.40 107.52 148.25   Q 106.09 136.60 106.24 107.71   Q 106.42 74.45 106.22 46.42   Z   M 212.27 151.10   Q 211.71 151.06 204.05 151.01   Q 198.39 150.98 196.21 152.57   Q 192.35 155.39 192.34 160.76   Q 192.31 188.07 192.35 244.50   Q 192.35 251.96 197.34 254.84   Q 200.13 256.45 208.02 256.49   Q 262.01 256.77 307.33 256.47   Q 313.54 256.43 316.03 254.87   Q 320.31 252.19 320.30 246.26   Q 320.20 204.55 320.11 161.77   Q 320.09 153.64 313.39 151.57   C 309.69 150.44 303.66 150.97 299.62 150.96   A 0.55 0.55 0.0 0 1 299.07 150.41   Q 299.31 132.67 298.98 119.51   C 298.35 94.26 275.00 75.63 250.67 78.45   C 229.54 80.91 213.11 98.79 212.82 120.02   Q 212.59 135.71 212.75 150.65   A 0.45 0.44 1.2 0 1 212.27 151.10   Z"
       id="path15"
       style="fill:#00d455" />
    <path
       d="   M 234.83 151.16   A 0.65 0.65 0.0 0 1 234.17 150.51   L 234.12 121.57   A 21.99 21.72 89.9 0 1 255.80 99.54   A 21.99 21.72 89.9 0 1 277.56 121.49   L 277.61 150.43   A 0.65 0.65 0.0 0 1 276.96 151.08   L 234.83 151.16   Z"
       id="path16"
       style="fill:#00d455" />
    <path
       d="   M 255.83 182.09   C 274.54 182.10 281.03 206.19 264.93 215.96   A 0.92 0.91 -18.2 0 0 264.50 216.80   L 265.66 232.75   A 0.49 0.49 0.0 0 1 265.24 233.28   Q 264.91 233.32 255.81 233.32   Q 246.72 233.32 246.39 233.27   A 0.49 0.49 0.0 0 1 245.97 232.74   L 247.13 216.80   A 0.92 0.91 18.2 0 0 246.70 215.95   C 230.61 206.17 237.11 182.09 255.83 182.09   Z"
       id="path17"
       style="fill:#00d455" />
  </g>
</svg>
